<?xml version="1.0" encoding="UTF-8"?>
<!DOCTYPE svg PUBLIC "-//W3C//DTD SVG 1.1//EN" "http://www.w3.org/Graphics/SVG/1.1/DTD/svg11.dtd">
<!-- Creator: CorelDRAW 2021 (64 Bit) -->
<svg xmlns="http://www.w3.org/2000/svg" xml:space="preserve" width="311.854mm" height="65.6526mm" version="1.1" style="shape-rendering:geometricPrecision; text-rendering:geometricPrecision; image-rendering:optimizeQuality; fill-rule:evenodd; clip-rule:evenodd"
viewBox="0 0 31204.81 6569.36"
 xmlns:xlink="http://www.w3.org/1999/xlink"
 xmlns:xodm="http://www.corel.com/coreldraw/odm/2003">
 <defs>
  <style type="text/css">
   <![CDATA[
    .fil1 {fill:#FEFEFE;fill-rule:nonzero}
    .fil0 {fill:#F26B35;fill-rule:nonzero}
    .fil2 {fill:#514F4E;fill-rule:nonzero}
   ]]>
  </style>
 </defs>
 <g id="Camada_x0020_1">
  <metadata id="CorelCorpID_0Corel-Layer"/>
  <path class="fil0" d="M6569.33 3284.68c0,1814.05 -1470.59,3284.68 -3284.68,3284.68 -355.08,0 -698.94,-57.26 -1019.28,-161.49 -0.36,-0.18 -339.59,-125.85 -496.5,-208.7 -121.43,-64.07 -364.12,-220.9 -364.12,-220.9 -848.85,-593.5 -1404.76,-1578.61 -1404.76,-2693.59 0,-1814.06 1470.6,-3284.68 3284.65,-3284.68 1814.09,0 3284.68,1470.62 3284.68,3284.68z"/>
  <path class="fil1" d="M5180.4 1663.74c-368.46,-317.53 -870.56,-476.66 -1506.18,-476.66l-2040.89 0c-126.23,0 -228.56,102.36 -228.56,228.6l0 4562.6c261.53,182.88 550.96,328.56 860.61,429.56l0 -1125.74 0 -221.69 0 -1174.14 0 -118.1 0 -1627c0,-126.24 102.33,-228.6 228.57,-228.6l1087.62 0c393.6,0 705.75,83.09 936.5,249.22 230.54,165.76 345.94,451.16 345.94,856.19 0,404.99 -115.39,689.3 -345.94,852.1 -230.75,163.19 -542.91,244.8 -936.5,244.8l-12.74 0 -252.58 0c-197.99,0 -358.46,160.48 -358.46,358.47l0 0c0,197.99 160.47,358.5 358.46,358.5l252.58 0 32.29 0 73.11 0c641.33,0 1144.74,-153.21 1510.41,-459.68 365.53,-306.43 548.27,-757.95 548.27,-1354.2 0,-584.81 -184.22,-1036.37 -552.5,-1354.23z"/>
  <path class="fil2" d="M31003.28 1592.89l-47.69 0c-84.26,0 -159.63,52.48 -188.86,131.52l-191.78 518.62 -204.88 599.07 2.61 0 -42.09 115.43 -0.03 0.11 0 0 -508.11 1393.56c-8.44,23.15 -41.2,23.15 -49.66,0l-496.46 -1361.79 0 0 -0.04 -0.04 -53.68 -147.27 3.88 0 -194.65 -575.46 -201.98 -530.59c-32.83,-86.2 -115.47,-143.17 -207.67,-143.17 -155.4,0 -262.81,155.39 -207.88,300.72l1080.69 2861.57c47.55,125.88 168.06,209.19 302.63,209.19 134.56,0 255.08,-83.31 302.63,-209.19l1091.36 -2889.81c49.74,-131.71 -47.58,-272.48 -188.36,-272.48z"/>
  <path class="fil2" d="M13649.16 1592.89l1934.68 0c114.94,0 208.13,93.19 208.13,208.13l0 0c0,114.93 -93.19,208.09 -208.13,208.09l-1440.94 0c-48.99,0 -88.71,39.71 -88.71,88.71l0 892.49c0,49 39.71,88.71 88.71,88.71l1002.91 0c113.59,0 205.69,92.07 205.69,205.66l0 0c0,113.6 -92.1,205.7 -205.69,205.7l-1002.91 0c-48.99,0 -88.71,39.7 -88.71,88.67l0 897.4c0,48.96 39.71,88.67 88.71,88.67l1443.37 0c113.6,0 205.7,92.1 205.7,205.7l0 0c0,113.59 -92.1,205.69 -205.7,205.69l-1937.11 0c-48.99,0 -88.71,-39.71 -88.71,-88.71l0 -3206.18c0,-48.99 39.71,-88.71 88.71,-88.71z"/>
  <path class="fil2" d="M16714 4998.28c-119.8,-21.49 -225.63,-47.86 -317.49,-79.1 -86.16,-29.27 -144.8,-108.8 -144.8,-199.8l0 -0.03c0,-141.41 137.61,-240.53 272.31,-197.43 230.89,73.92 474.08,110.77 729.67,110.77 503.41,0 755.14,-169.23 755.14,-508.14 0,-116.28 -27.54,-209.72 -82.29,-280.66 -54.95,-70.95 -133.96,-133.22 -237.25,-186.39 -103.25,-53.37 -271,-126.69 -503.37,-220.31 -319.53,-128.98 -550.29,-271.14 -692.23,-425.97 -142.01,-154.83 -212.96,-350.14 -212.96,-585.66 0,-177.52 48.4,-334.89 145.19,-471.95 96.83,-137.25 232.37,-243.78 406.58,-319.61 174.35,-75.65 374.38,-113.77 600.3,-113.77 183.94,0 350.14,14.62 498.51,43.63 102.93,20.12 204.31,48.79 304.1,86.03 79.25,29.54 131.6,105.9 131.6,190.51 0,135.19 -130.79,231.42 -259.98,191.57 -195.81,-60.36 -393.14,-90.65 -591.95,-90.65 -232.37,0 -409.87,42.15 -532.49,126.06 -122.67,83.87 -183.98,203.11 -183.98,358.18 0,106.33 26.69,195.91 79.96,268.56 53.19,72.65 132.3,137.29 237.14,193.62 104.85,56.56 260.55,126.66 467.16,210.53 229.09,93.61 409.76,182.39 542.17,266.27 132.27,83.87 233.09,186.39 302.45,307.35 69.36,121.16 104.13,271.95 104.13,452.65 0,293.58 -104.99,521.27 -314.67,682.49 -209.82,161.39 -519.61,242.08 -929.37,242.08 -193.69,0 -384.87,-16.94 -573.59,-50.83z"/>
  <path class="fil2" d="M19758.28 2009.11l-752.31 0c-114.93,0 -208.12,-93.19 -208.12,-208.13l0 0c0,-114.93 93.19,-208.09 208.12,-208.09l2183.08 0c114.97,0 208.13,93.16 208.13,208.09l0 0c0,114.94 -93.16,208.13 -208.13,208.13l-752.27 0c-49.7,0 -90.02,40.28 -90.02,89.98l0 2628.11c0,137.67 -111.58,249.26 -249.26,249.26 -137.67,0 -249.25,-111.59 -249.25,-249.26l0 -2628.11c0,-49.7 -40.28,-89.98 -89.99,-89.98z"/>
  <path class="fil2" d="M25084.01 2009.11l-738.97 0c-114.93,0 -208.09,-93.19 -208.09,-208.13l0 0c0,-114.93 93.16,-208.09 208.09,-208.09l2183.12 0c114.93,0 208.09,93.16 208.09,208.09l0 0c0,114.94 -93.16,208.13 -208.09,208.13l-738.97 0c-57.08,0 -103.35,46.28 -103.35,103.32l0 2614.76c0,137.67 -111.58,249.26 -249.26,249.26l0 0c-137.63,0 -249.25,-111.59 -249.25,-249.26l0 -2614.76c0,-57.05 -46.25,-103.32 -103.32,-103.32z"/>
  <path class="fil2" d="M27469.5 1592.89l0 0c137.68,0 249.26,111.58 249.26,249.26l0 2885.05c0,137.67 -111.58,249.29 -249.26,249.29 -137.67,0 -249.25,-111.62 -249.25,-249.29l0 -2885.05c0,-137.68 111.58,-249.26 249.25,-249.26z"/>
  <path class="fil2" d="M9695.32 1866.34c-211.41,-182.14 -499.46,-273.46 -864.11,-273.46l-1170.89 0c-72.44,0 -131.14,58.74 -131.14,131.13l0 3005.56c0,136.37 110.53,246.89 246.85,246.89 136.37,0 246.88,-110.53 246.88,-246.89l0 -787.32 0 -127.15 0 -673.66 0 -67.74 0 -933.47c0,-72.4 58.71,-131.13 131.14,-131.13l624 0c225.77,0 404.88,47.69 537.25,143 132.27,95.09 198.49,258.81 198.49,491.2 0,232.37 -66.22,395.46 -198.49,488.86 -132.37,93.62 -311.48,140.46 -537.25,140.46l-7.31 0 -144.9 0c-113.6,0 -205.7,92.06 -205.7,205.66 0,113.59 92.1,205.69 205.7,205.69l144.9 0 18.5 0 41.97 0c367.93,0 656.76,-87.93 866.54,-263.72 209.72,-175.79 314.56,-434.86 314.56,-776.94 0,-335.53 -105.69,-594.59 -316.99,-776.95z"/>
  <path class="fil2" d="M12794.68 4660.24c-1.69,-5.33 -4.27,-11.3 -7.27,-17.51 -0.77,-1.62 -1.02,-2.86 -1.87,-4.55l-2.57 -4.69 -5.93 -10.88 -492.08 -900.42c-32.97,-60.83 -3.25,-135.62 61.7,-159.49 181.48,-66.71 326.31,-170.78 434.54,-311.9 132.27,-172.62 198.35,-383.18 198.35,-631.62 0,-335.52 -96.79,-590.57 -290.38,-764.88 -193.61,-174.35 -471.21,-261.39 -832.54,-261.39l-1247.67 0c-62.13,0 -112.54,50.37 -112.54,112.54l0 3024.17c0,136.32 110.52,246.85 246.88,246.85l0 0c136.33,0 246.85,-110.53 246.85,-246.85l0 -1075.73 0 -237.35 0 -304.96 0 -294.11 0 -695.79c0,-62.17 50.41,-112.54 112.57,-112.54l671.58 0c222.64,0 396.1,46.81 520.35,140.43 124.22,93.65 186.39,250.17 186.39,469.62 0,200.15 -63.75,350.95 -191.15,452.65 -127.65,101.45 -229.8,152.28 -445.95,152.28l-2.68 0 0 0.38c-121.5,4.24 -218.82,103.85 -218.82,226.42l0 21c0,38.5 7.76,72.4 18,100.42 15.46,42.36 36.18,70.7 44.87,81.47 0,0 0.03,0.07 0,0.07l654.53 1210.99c0,0 0.07,-0.03 0.07,-0.03 42.04,78.86 125.07,132.58 220.66,132.58 138.09,0 250.03,-111.94 250.03,-250.03 0,-29.66 -5.43,-57.97 -14.9,-84.37 -0.35,-0.95 -0.67,-1.87 -1.02,-2.78z"/>
  <path class="fil2" d="M23387.7 3715.16l-550.18 -1509.07c-8.48,-23.18 -41.23,-23.18 -49.67,-0.03l-550.21 1509.1 1150.07 0zm-575.03 -2122.26l0 0c134.59,0 255.07,83.31 302.62,209.19l1080.74 2861.57c54.88,145.37 -52.53,300.72 -207.88,300.72 -92.25,0 -174.88,-56.97 -207.67,-143.14l-265 -696.07 -1410.2 0 -261.71 707.69c-29.23,79.07 -104.59,131.52 -188.85,131.52l-47.69 0c-140.78,0 -238.1,-140.77 -188.36,-272.48l1091.36 -2889.81c47.55,-125.88 168.06,-209.19 302.63,-209.19z"/>
 </g>
</svg>
